<svg xmlns="http://www.w3.org/2000/svg" xmlns:xlink="http://www.w3.org/1999/xlink" viewBox="0 0 272.24 266.46"><defs><style>.cls-1{fill:url(#radial-gradient);}.cls-2{fill:url(#radial-gradient-2);}</style><radialGradient id="radial-gradient" cx="136.12" cy="133.23" r="182.56" gradientUnits="userSpaceOnUse"><stop offset="0" stop-color="#3e7198"/><stop offset="0.25" stop-color="#3d6f95" stop-opacity="0.98"/><stop offset="0.41" stop-color="#39698d" stop-opacity="0.93"/><stop offset="0.55" stop-color="#335d7e" stop-opacity="0.83"/><stop offset="0.67" stop-color="#2b4e69" stop-opacity="0.69"/><stop offset="0.78" stop-color="#203a4e" stop-opacity="0.51"/><stop offset="0.89" stop-color="#12212c" stop-opacity="0.29"/><stop offset="0.99" stop-color="#020405" stop-opacity="0.03"/><stop offset="1" stop-opacity="0"/></radialGradient><radialGradient id="radial-gradient-2" cx="-210.21" cy="350.59" r="142.76" gradientTransform="translate(541.38 79.71) rotate(51.53)" xlink:href="#radial-gradient"/></defs><g id="Layer_2" data-name="Layer 2"><g id="Layer_1-2" data-name="Layer 1"><path class="cls-1" d="M247.08,83.6l-38.53-8.33a31.78,31.78,0,0,1-9.37-3.67l4.1-23.41c4.33-24.68-14.35-39.82-34.36-32.3-11.84-20.74-42.58-21.61-55.13-.05l-14,24L88.89,35.73C70.16,28.64,48.17,46,43.51,67.57l-14,1.06c-26.34,2-39,33.33-21.35,53l21.54,24.1L19.45,158.47C1,181.4,9.46,212.74,33.55,213.1l-1.22,5C26.08,243.8,52,265.48,76.16,254.82L91.55,248c10.41,19.69,38.08,15.5,51.71-6.2l32.11,19.81c22.49,13.87,51.12-4.07,48.45-30.35l-4-39.22a31.87,31.87,0,0,1,11.08-27.52L261,139.05C281.11,122,272.9,89.18,247.08,83.6Z"/><path class="cls-2" d="M220.49,177l-13.64-27.64a24.83,24.83,0,0,1-2.32-7.52L220.86,133c17.22-9.36,17.4-28.16,3.06-36.75,6.94-17.34-7.48-36.58-26.78-33.78l-21.52,3.13-2.78-8.7C168.07,42,146.75,36.94,131.27,44.59l-7.46-8.06c-14-15.16-39.36-7.64-42.86,12.73L76.68,74.17l-12.77-.09c-23-.17-38.09,20.28-26.59,35.2L33.65,111c-18.76,8.67-19.43,35.08-1.15,44.69l11.65,6.12c-7,16,9,30.86,28.95,28.65l3.49,29.3c2.45,20.51,27.35,29.32,42.15,14.9l22.07-21.52a24.94,24.94,0,0,1,22.24-6.6l30.24,6C213.56,216.52,229.63,195.55,220.49,177Z"/></g></g></svg>