<svg xmlns="http://www.w3.org/2000/svg" xmlns:xlink="http://www.w3.org/1999/xlink" viewBox="0 0 425.44 413.95"><defs><style>.cls-1{fill:url(#radial-gradient);}.cls-2{fill:url(#radial-gradient-2);}</style><radialGradient id="radial-gradient" cx="16.8" cy="-134.85" r="245.64" gradientTransform="translate(118.12 282.18) rotate(45)" gradientUnits="userSpaceOnUse"><stop offset="0" stop-color="#507f78"/><stop offset="0.27" stop-color="#4e7c75" stop-opacity="0.98"/><stop offset="0.44" stop-color="#49746d" stop-opacity="0.91"/><stop offset="0.58" stop-color="#3f655f" stop-opacity="0.79"/><stop offset="0.71" stop-color="#32504b" stop-opacity="0.63"/><stop offset="0.83" stop-color="#213532" stop-opacity="0.41"/><stop offset="0.94" stop-color="#0c1413" stop-opacity="0.15"/><stop offset="1" stop-opacity="0"/></radialGradient><radialGradient id="radial-gradient-2" cx="-797.51" cy="-423.23" r="200.83" gradientTransform="matrix(0.05, 1, -1, 0.05, -172.25, 1025.61)" xlink:href="#radial-gradient"/></defs><g id="Layer_2" data-name="Layer 2"><g id="Layer_1-2" data-name="Layer 1"><path class="cls-1" d="M402.59,291.55l-54.38-84.38,69.38-51.68c13.35-10,8.89-28.1-7.55-30.72l-41.92-6.68,15.75-37.71a20.64,20.64,0,0,0-24.31-27.91l-79,20.87L254,12.18c-5.84-13.46-27.42-14.1-36.51-1.09L196,42,152.94,5a20.63,20.63,0,0,0-34,14.49L114.05,106,35.1,113.6c-17,1.62-25.83,19.38-15,30l32.31,31.85L9.91,201.36a20.63,20.63,0,0,0,3.26,36.86L81,264.53,63.34,319.58c-4.64,14.47,11.45,26.08,27.23,19.66l43.71-17.79,18.16,76.61a20.64,20.64,0,0,0,36.07,8.29l68-83.33,43.25,22.45c14.1,7.32,32.92-3.26,31.85-17.89L331,319l52.6,4.29A20.63,20.63,0,0,0,402.59,291.55Z"/><path class="cls-2" d="M268.94,362.66l13.53-81,70.4,6.91c13.54,1.33,20.83-12.1,12.33-22.73l-21.68-27.1,30.28-14.14a16.88,16.88,0,0,0,.64-30.26L315.2,163.56,332.79,112c3.87-11.35-8.82-23.61-21.48-20.75l-30,6.81-5.68-46a16.87,16.87,0,0,0-28.57-10L196.49,91.71,144.58,52.85c-11.15-8.34-26.28-2.49-25.61,9.91l2,37L81.06,92.07a16.87,16.87,0,0,0-18.3,24.09L89.3,169.39,48.34,193C37.57,199.16,40.92,215,54,219.84l36.23,13.28L59.05,289.45A16.87,16.87,0,0,0,76.3,314.31l87-13,13.81,37.37c4.5,12.18,21.7,16.14,29.11,6.7l4.34-5.53L240,371.39A16.88,16.88,0,0,0,268.94,362.66Z"/></g></g></svg>