<svg xmlns="http://www.w3.org/2000/svg" xmlns:xlink="http://www.w3.org/1999/xlink" viewBox="0 0 647.47 644.7"><defs><style>.cls-1{fill:url(#radial-gradient);}.cls-2{fill:url(#radial-gradient-2);}</style><radialGradient id="radial-gradient" cx="328.86" cy="314.65" r="417.87" gradientTransform="translate(326.25 804.39) rotate(-136.13)" gradientUnits="userSpaceOnUse"><stop offset="0" stop-color="#ff0"/><stop offset="0.14" stop-color="#fbfb00" stop-opacity="0.99"/><stop offset="0.27" stop-color="#f0f000" stop-opacity="0.94"/><stop offset="0.39" stop-color="#dd0" stop-opacity="0.87"/><stop offset="0.51" stop-color="#c3c300" stop-opacity="0.77"/><stop offset="0.63" stop-color="#a1a100" stop-opacity="0.63"/><stop offset="0.74" stop-color="#770" stop-opacity="0.47"/><stop offset="0.86" stop-color="#464600" stop-opacity="0.27"/><stop offset="0.97" stop-color="#0e0e00" stop-opacity="0.06"/><stop offset="1" stop-opacity="0"/></radialGradient><radialGradient id="radial-gradient-2" cx="619.98" cy="225.99" r="417.87" gradientTransform="translate(-333.08 371.98) rotate(-25.48)" xlink:href="#radial-gradient"/></defs><g id="Layer_2" data-name="Layer 2"><g id="Layer_1-2" data-name="Layer 1"><polygon class="cls-1" points="171.31 188.52 41.48 180.49 155.7 350.29 16.66 455.56 119.19 468.59 82.77 560.87 240.11 515.97 299.91 644.7 359.69 558.58 457.29 639.14 463.19 476.15 626.3 456.48 538.95 376.18 647.47 307.14 511.19 257.35 544.77 151 435.31 197.48 390.49 23.68 257.86 193 168 150.43 171.31 188.52"/><polygon class="cls-2" points="522.52 238.88 575.81 120.22 376.64 167.22 327.17 0 278.82 91.34 205.31 24.73 191.85 187.79 50.29 198.35 109.8 284.67 0 347.59 150.45 410.58 111.34 570.15 217.28 516.73 243.62 642.62 338.27 532.66 425.94 601.58 421.04 482.76 599.49 502.1 487.82 318.28 559.33 249.21 522.52 238.88"/></g></g></svg>